<svg width="17" height="17" viewBox="0 0 17 17" fill="none" xmlns="http://www.w3.org/2000/svg">
<path d="M14.4642 3.24417C14.1088 2.88757 13.6866 2.60464 13.2216 2.41158C12.7567 2.21853 12.2582 2.11915 11.7548 2.11915C11.2514 2.11915 10.7529 2.21853 10.288 2.41158C9.82303 2.60464 9.40077 2.88757 9.04542 3.24417L8.5 3.79667L7.95458 3.24417C7.59923 2.88757 7.17697 2.60464 6.71204 2.41158C6.2471 2.21853 5.74863 2.11915 5.24521 2.11915C4.74178 2.11915 4.24331 2.21853 3.77838 2.41158C3.31344 2.60464 2.89119 2.88757 2.53583 3.24417C1.03417 4.74583 0.942083 7.28167 2.83333 9.20833L8.5 14.875L14.1667 9.20833C16.0579 7.28167 15.9658 4.74583 14.4642 3.24417Z" stroke="#E63946" stroke-width="2" stroke-linecap="round" stroke-linejoin="round"/>
</svg>
